<?xml version="1.0" encoding="utf-8"?>
<svg xmlns="http://www.w3.org/2000/svg"
	xmlns:xlink="http://www.w3.org/1999/xlink"
	width="5px" height="11px" viewBox="0 0 5 11">
<path fillRule="evenodd" d="M 0 3.64C 0 3.64 1.07 3.64 1.07 3.64 1.07 3.64 1.07 3.12 1.07 3.12 1.07 3.12 1.07 2.62 1.07 2.62 1.07 2.62 1.07 2.53 1.07 2.53 1.07 2.05 1.08 1.29 1.42 0.83 1.77 0.34 2.25-0 3.08-0 4.43-0 5 0.2 5 0.2 5 0.2 4.73 1.89 4.73 1.89 4.73 1.89 4.29 1.75 3.87 1.75 3.45 1.75 3.08 1.91 3.08 2.35 3.08 2.35 3.08 2.53 3.08 2.53 3.08 2.53 3.08 3.12 3.08 3.12 3.08 3.12 3.08 3.64 3.08 3.64 3.08 3.64 4.79 3.64 4.79 3.64 4.79 3.64 4.67 5.28 4.67 5.28 4.67 5.28 3.08 5.28 3.08 5.28 3.08 5.28 3.08 11 3.08 11 3.08 11 1.07 11 1.07 11 1.07 11 1.07 5.28 1.07 5.28 1.07 5.28 0 5.28 0 5.28 0 5.28 0 3.64 0 3.64Z" fill="rgb(255,255,255)"/></svg>