<?xml version="1.0" encoding="utf-8"?>
<svg xmlns="http://www.w3.org/2000/svg"
	xmlns:xlink="http://www.w3.org/1999/xlink"
	width="8px" height="13px" viewBox="0 0 8 13">
<filter filterUnits="objectBoundingBox" x="0.00" y="0.00" width="100.00" height="100.00" id="filter0">
<feFlood flood-color="rgb(119,119,119)" result="coFloodOut1"/>
<feComposite in="coFloodOut1" in2="SourceAlpha" operator="in" result="coOverlay1"/>
<feBlend in="coOverlay1" in2="SourceGraphic" mode="normal" result="colorOverlay1"/>
</filter>
<path fillRule="evenodd" d="M 8 5C 8 5 4 13 4 13 4 13-0 5-0 5-0 5 0.14 5 0.14 5 0.06 4.68-0 4.35-0 4-0 1.79 1.79-0 4-0 6.21-0 8 1.79 8 4 8 4.35 7.94 4.68 7.86 5 7.86 5 8 5 8 5ZM 4 2C 2.9 2 2 2.9 2 4 2 5.1 2.9 6 4 6 5.1 6 6 5.1 6 4 6 2.9 5.1 2 4 2Z" fill="rgb(0,0,0)" filter="url(#filter0)"/></svg>