<?xml version="1.0" encoding="utf-8"?>
<svg xmlns="http://www.w3.org/2000/svg"
	xmlns:xlink="http://www.w3.org/1999/xlink"
	width="11px" height="12px" viewBox="0 0 11 12">
<filter filterUnits="objectBoundingBox" x="0.00" y="0.00" width="100.00" height="100.00" id="filter0">
<feFlood flood-color="rgb(119,119,119)" result="coFloodOut1"/>
<feComposite in="coFloodOut1" in2="SourceAlpha" operator="in" result="coOverlay1"/>
<feBlend in="coOverlay1" in2="SourceGraphic" mode="normal" result="colorOverlay1"/>
</filter>
<path fillRule="evenodd" d="M-0 9C-0 9 3 6 3 6 3 6 3 8 3 8 3 8 11 8 11 8 11 8 11 10 11 10 11 10 3 10 3 10 3 10 3 12 3 12 3 12-0 9-0 9ZM-0 4C-0 4-0 2-0 2-0 2 8 2 8 2 8 2 8-0 8-0 8-0 11 3 11 3 11 3 8 6 8 6 8 6 8 4 8 4 8 4-0 4-0 4Z" fill="rgb(0,0,0)" filter="url(#filter0)"/></svg>