<?xml version="1.0" encoding="utf-8"?>
<svg xmlns="http://www.w3.org/2000/svg"
	xmlns:xlink="http://www.w3.org/1999/xlink"
	width="15px" height="10px" viewBox="0 0 15 10">
<filter filterUnits="objectBoundingBox" x="6.25" y="0.00" width="93.75" height="100.00" id="filter0">
<feFlood flood-color="black" result="coFloodOut1"/>
<feComposite in="coFloodOut1" in2="SourceAlpha" operator="in" result="coOverlay1"/>
<feBlend in="coOverlay1" in2="SourceGraphic" mode="normal" result="colorOverlay1"/>
</filter>
<path fillRule="evenodd" d="M 15 1C 15 1 15 9 15 9 15 9 11 5 11 5 11 5 15 1 15 1ZM-0.03-0C-0.03-0 15-0 15-0 15-0 7.78 6.34 7.78 6.34 7.78 6.34-0.03-0-0.03-0ZM 4.34 5C 4.34 5-0 9-0 9-0 9-0 1-0 1-0 1 4.34 5 4.34 5ZM 8 8C 8 8 10.28 5.78 10.28 5.78 10.28 5.78 15 10 15 10 15 10-0.03 10-0.03 10-0.03 10 5 5.81 5 5.81 5 5.81 8 8 8 8Z" fill="rgb(0,0,0)" filter="url(#filter0)"/></svg>