<?xml version="1.0" encoding="utf-8"?>
<svg xmlns="http://www.w3.org/2000/svg"
	xmlns:xlink="http://www.w3.org/1999/xlink"
	width="12px" height="11px" viewBox="0 0 12 11">
<path fillRule="evenodd" d="M 9.97 2.76C 9.97 2.76 9.97 4.96 9.97 4.96 9.97 4.96 9.46 4.96 9.46 4.96 9.46 4.96 9.46 2.76 9.46 2.76 9.46 2.76 7.43 2.76 7.43 2.76 7.43 2.76 7.43 2.2 7.43 2.2 7.43 2.2 9.46 2.2 9.46 2.2 9.46 2.2 9.46-0 9.46-0 9.46-0 9.97-0 9.97-0 9.97-0 9.97 2.2 9.97 2.2 9.97 2.2 12 2.2 12 2.2 12 2.2 12 2.76 12 2.76 12 2.76 9.97 2.76 9.97 2.76ZM 4.85 0.55C 5.51 0.83 5.87 1.66 5.87 2.52 5.87 3.24 5.5 3.86 4.98 4.3 4.47 4.73 4.38 4.91 4.38 5.27 4.38 5.58 4.92 6.11 5.2 6.33 6.03 6.97 6.3 7.56 6.3 8.55 6.3 9.78 5.2 11 3.22 11 1.47 11 0 10.23 0 9 0 7.75 1.34 6.55 3.09 6.55 3.28 6.55 3.45 6.54 3.63 6.54 3.39 6.29 3.2 5.98 3.2 5.6 3.2 5.37 3.27 5.16 3.36 4.96 3.27 4.97 3.17 4.97 3.07 4.97 1.64 4.97 0.68 3.87 0.68 2.5 0.68 1.16 2-0 3.41-0 4.2-0 6.55-0 6.55-0 6.55-0 5.85 0.55 5.85 0.55 5.85 0.55 4.85 0.55 4.85 0.55ZM 3.42 6.86C 2.21 6.85 1.13 7.66 1.13 8.63 1.13 9.63 2 10.46 3.21 10.46 4.9 10.46 5.49 9.68 5.49 8.68 5.49 8.57 5.48 8.45 5.45 8.33 5.32 7.77 4.85 7.49 4.2 7 3.96 6.91 3.7 6.87 3.42 6.86ZM 4.74 2.59C 4.6 1.43 3.83 0.51 3.02 0.48 2.21 0.46 1.67 1.34 1.81 2.49 1.95 3.64 2.72 4.6 3.53 4.62 4.33 4.65 4.88 3.74 4.74 2.59Z" fill="rgb(255,255,255)"/></svg>