<?xml version="1.0" encoding="utf-8"?>
<svg xmlns="http://www.w3.org/2000/svg"
	xmlns:xlink="http://www.w3.org/1999/xlink"
	width="132px" height="56px" viewBox="0 0 132 56">
<path fillRule="evenodd" d="M 118.46 44.22C 93.94 54.95 23.07 45.53 20.74 45.39 20.74 45.39 20.74 45.39 20.74 45.39 18.56 45.27 16.34 45.14 15.93 45.14 14.85 45.14 14.09 45.49 13.63 46.19 13.36 46.58 13.23 46.96 13.23 47.32 13.23 48.2 13.99 49.14 15.53 50.14 16.37 50.69 16.79 51.53 16.79 52.69 16.79 53.59 16.45 54.37 15.78 55.03 15.1 55.68 14.28 56 13.32 56 12.45 56 11.63 55.73 10.88 55.18 9.02 53.85 8.08 51.99 8.08 49.59 8.08 47.9 8.67 46.23 9.84 44.59 10.6 43.53 11.74 42.67 13.27 42 14.69 41.4 16.1 41.09 17.51 41.09 18.1 41.09 18.65 41.12 19.18 41.16 19.18 41.16 19.18 41.16 19.18 41.16 37.46 41.27 96.82 45.72 111.72 42.83 120.8 41.06 125.39 37.07 127.7 33.76 124.17 36.82 120.92 38.37 117.96 38.37 116.96 38.37 116.09 38.16 115.34 37.74 114.32 37.16 113.52 36.27 112.95 35.06 112.47 34.06 112.28 33.21 112.41 32.51 112.52 31.75 112.62 31.25 112.68 31.01 112.8 30.67 113.01 30.36 113.28 30.06 112.82 30.49 108.71 34.48 106.28 36.47 105.16 37.35 104.17 37.78 103.3 37.78 102.64 37.78 101.94 37.56 101.22 37.1 100.35 36.53 99.75 36.24 99.42 36.24 98.97 36.24 98.32 36.54 97.48 37.15 96.88 37.57 96.38 37.78 95.99 37.78 95.24 37.78 94.89 37.27 94.95 36.24 95.04 34.91 96.48 32.62 99.28 29.38 101.42 26.92 103.55 24.78 105.69 22.97 104.76 23 104.07 22.82 103.64 22.42 103.2 22.03 102.77 21.83 102.35 21.83 101.75 21.83 101.13 22.18 100.5 22.88 99.02 24.48 93.36 31.25 91.52 32.97 87.64 36.57 84.09 38.37 80.87 38.37 79.88 38.37 79.01 38.16 78.26 37.74 77.24 37.16 76.44 36.27 75.87 35.06 75.38 34.06 75.2 33.21 75.32 32.51 75.44 31.75 75.54 31.25 75.6 31.01 75.72 30.67 75.93 30.36 76.2 30.06 76.01 30.24 74.36 31.99 73.31 32.97 69.43 36.57 65.88 38.37 62.66 38.37 61.67 38.37 60.8 38.16 60.05 37.74 59.02 37.16 58.23 36.27 57.66 35.06 57.17 34.06 56.99 33.21 57.11 32.51 57.23 31.75 57.32 31.25 57.38 31.01 57.51 30.67 57.72 30.36 57.99 30.06 57.87 30.17 57.77 30.26 57.66 30.35 54.88 33.66 52.02 36.04 49.1 37.47 48.26 37.89 47.44 38.1 46.66 38.1 45.52 38.1 44.61 37.69 43.93 36.87 43.26 36.06 42.96 35.21 43.05 34.33 43.26 32.42 44.8 29.66 47.66 26.06 48.77 24.66 49.33 23.57 49.33 22.78 49.33 22.03 48.68 21.65 47.38 21.65 44.14 25.92 41.82 28.74 40.44 30.1 40.37 30.17 40.3 30.21 40.23 30.26 40.05 30.76 39.84 31.26 39.6 31.78 38.79 33.63 37.33 35.16 35.23 36.37 33.12 37.59 31.02 38.19 28.91 38.19 27.35 38.19 26.04 37.81 24.99 37.06 23.06 35.66 21.89 34.09 21.47 32.33 19.18 35.18 16.82 37.06 14.38 37.97 13.09 38.45 11.43 38.69 9.42 38.69 8.01 38.69 6.59 38.39 5.18 37.78 3.64 37.12 2.5 36.25 1.75 35.19 0.58 33.56-0.01 31.89-0.01 30.19-0.01 27.8 0.92 25.94 2.79 24.6 3.54 24.06 4.35 23.78 5.22 23.78 6.19 23.78 7.01 24.11 7.68 24.76 8.36 25.41 8.7 26.19 8.7 27.1 8.7 28.25 8.28 29.1 7.43 29.65 5.9 30.65 5.13 31.59 5.13 32.47 5.13 32.83 5.27 33.21 5.54 33.6 5.99 34.3 6.76 34.65 7.84 34.65 8.68 34.65 9.57 34.39 10.5 33.88 12.25 32.91 13.78 31.53 15.1 29.74 15.92 28.62 17.22 26.42 19.03 23.15 21.17 19.3 23.11 16.04 24.85 13.38 27.11 9.89 29.33 7.07 31.53 4.92 30.69 4.74 29.83 4.65 28.96 4.65 26.94 4.65 24.97 5.07 23.05 5.92 20.07 7.19 17.87 8.62 16.46 10.19 15.22 11.56 14.41 13.24 14.02 15.24 13.93 15.69 13.89 16.13 13.89 16.56 13.89 18.5 14.79 19.72 16.59 20.24 17.56 20.51 18.04 20.97 18.04 21.6 18.04 22.51 17.6 23.12 16.73 23.42 16.49 23.51 16.22 23.56 15.92 23.56 14.68 23.56 13.65 22.98 12.8 21.83 11.84 20.5 11.36 19 11.36 17.33 11.36 16.42 11.64 14.86 12.22 12.65 12.79 10.53 14.56 8.33 17.54 6.06 21.18 3.33 25.12 1.97 29.36 1.97 31.32 1.97 33.06 2.09 34.6 2.33 36.82 1.09 38.16 0.41 38.61 0.29 39.75-0.05 40.49-0.09 40.82 0.15 41 0.27 41.09 0.42 41.09 0.6 41.09 0.97 40.67 1.42 39.83 1.97 39.5 2.18 38.9 2.57 38.03 3.15 40.1 3.91 41.87 5.36 43.35 7.51 43.92 8.33 44.21 9.44 44.21 10.83 44.21 12.89 43.77 14.48 42.9 15.6 41.78 17.03 40.36 18.18 38.61 19.06 39.63 20.06 40.33 20.98 40.69 21.83 41.11 22.8 41.32 23.88 41.32 25.06 41.32 25.44 41.29 25.84 41.25 26.24 41.48 25.97 41.69 25.71 41.88 25.47 43.11 23.89 44.17 22.36 45.04 20.88 44.35 20.3 44 19.59 44 18.74 44 18.04 44.23 17.24 44.68 16.33 45.43 14.88 46.53 14.15 47.97 14.15 48.51 14.15 48.97 14.3 49.35 14.6 49.72 14.91 49.91 15.38 49.91 16.01 49.91 16.65 49.73 17.35 49.37 18.1 50.15 18.56 51.32 18.53 52.89 18.01 54.21 17.56 55.14 17.33 55.69 17.33 56.5 17.33 56.98 17.68 57.13 18.38 57.19 18.62 57.22 18.86 57.22 19.1 57.22 19.62 57.07 20.19 56.77 20.81 56.47 21.43 56.17 22.03 55.87 22.6 54.87 24.72 53.76 27.18 52.53 29.97 52.17 30.97 52.17 31.57 52.53 31.78 53.04 31.78 53.49 31.53 53.88 31.01 54.42 30.51 58.42 26.43 59.53 25.1 61.2 23.1 62.9 21.45 64.65 20.15 67.11 18.27 69.31 17.33 71.24 17.33 72.5 17.33 73.51 17.71 74.26 18.47 75.1 19.32 75.52 20.22 75.52 21.19 75.52 22.65 74.62 24.35 72.81 26.28 70.32 28.95 67.45 30.8 64.2 31.83 64.05 33.5 64.65 34.34 66 34.37 66.84 34.41 67.91 34.04 69.21 33.28 70.38 32.56 76.07 27.1 77.74 25.1 79.41 23.1 81.12 21.45 82.86 20.15 85.33 18.27 87.52 17.33 89.45 17.33 90.71 17.33 91.72 17.71 92.47 18.47 93.31 19.32 93.73 20.22 93.73 21.19 93.73 22.65 92.83 24.35 91.03 26.28 88.53 28.95 85.66 30.8 82.41 31.83 82.26 33.5 82.86 34.34 84.21 34.37 85.06 34.41 86.12 34.04 87.42 33.28 88.59 32.56 89.61 31.74 90.48 30.83 91.63 29.59 95.69 25.25 99.24 21.19 100.89 19.28 101.87 18.19 102.17 17.92 102.95 17.26 103.82 16.88 104.79 16.79 105.63 16.72 106.5 16.95 107.4 17.47 108.55 18.16 109.16 18.53 109.25 18.56 109.73 18.68 110.08 18.74 110.29 18.74 110.89 18.74 111.69 18.33 112.68 17.51 112.98 17.27 113.3 17.15 113.63 17.15 114.29 17.15 114.62 17.44 114.62 18.01 114.62 18.44 114.38 18.83 113.9 19.19 111.83 20.8 109.71 22.59 107.54 24.56 105.73 26.22 104.67 27.28 104.36 27.74 104.04 28.19 103.88 28.59 103.88 28.92 103.88 29.19 103.99 29.44 104.2 29.65 104.62 29.74 105.31 29.97 106.28 30.33 106.4 30.39 106.74 30.6 107.31 30.97 107.67 31.21 108.04 31.32 108.4 31.28 108.83 31.25 111.4 28.8 111.43 28.77 111.46 28.74 113.44 26.75 114.82 25.1 116.49 23.1 118.2 21.45 119.94 20.15 122.41 18.27 124.6 17.33 126.53 17.33 127.79 17.33 128.8 17.71 129.55 18.47 130.39 19.32 130.81 20.22 130.81 21.19 130.81 22.65 129.91 24.35 128.11 26.28 125.61 28.95 122.74 30.8 119.49 31.83 119.34 33.5 119.94 34.34 121.29 34.37 122.14 34.41 123.2 34.04 124.5 33.28 125.67 32.56 126.69 31.74 127.57 30.83 128.71 29.59 129.48 28.84 129.89 28.58 130.3 28.32 130.54 28.19 130.63 28.19 130.87 28.19 131.17 28.31 131.54 28.56 131.64 28.64 131.69 28.75 131.73 28.86 132.99 30.99 130.2 39.09 118.46 44.22ZM 36.17 6.65C 35.78 6.41 35.33 6.17 34.82 5.92 34.16 6.59 33.48 7.36 32.79 8.24 31.83 9.45 30.85 11.62 29.86 14.74 28.47 18.89 27.35 21.92 26.47 23.83 27.59 23.32 28.43 22.98 29 22.83 29.27 22.77 29.51 22.74 29.72 22.74 30.38 22.74 30.72 23.06 30.72 23.69 30.72 24.33 30.23 24.74 29.27 24.92 28.1 25.13 26.76 25.95 25.26 27.38 24.32 28.25 23.86 29.36 23.86 30.69 23.86 31.42 24.07 31.98 24.49 32.37 25.45 33.28 26.44 33.74 27.47 33.74 28.61 33.74 29.81 33.09 31.08 31.78 31.71 31.12 32.34 30.12 32.97 28.78 33.72 27.09 34.1 25.51 34.1 24.06 34.1 23.72 34.07 23.39 34.01 23.06 33.8 21.54 33.33 20.6 32.61 20.24 32.61 20.21 31.93 20.09 30.58 19.88 29.74 19.88 29.32 19.41 29.32 18.47 29.32 17.5 29.92 16.91 31.12 16.69 32.08 16.66 33.05 16.62 34.01 16.56 35.93 16.32 37.27 14.68 38.03 11.65 38.12 11.29 38.16 10.91 38.16 10.51 38.16 8.79 37.5 7.5 36.17 6.65ZM 67.27 27.24C 67.75 27.24 68.77 26.41 70.33 24.74 71.27 23.74 71.73 22.69 71.73 21.6 71.73 21.12 71.55 20.88 71.19 20.88 70.62 20.88 69.6 21.86 68.12 23.83 67.1 25.07 66.59 26.01 66.59 26.65 66.59 27.04 66.81 27.24 67.27 27.24ZM 85.48 27.24C 85.96 27.24 86.98 26.41 88.54 24.74 89.48 23.74 89.94 22.69 89.94 21.6 89.94 21.12 89.76 20.88 89.4 20.88 88.83 20.88 87.81 21.86 86.33 23.83 85.31 25.07 84.8 26.01 84.8 26.65 84.8 27.04 85.03 27.24 85.48 27.24ZM 122.56 27.24C 123.04 27.24 124.06 26.41 125.63 24.74 126.56 23.74 127.02 22.69 127.02 21.6 127.02 21.12 126.84 20.88 126.48 20.88 125.91 20.88 124.89 21.86 123.41 23.83 122.39 25.07 121.88 26.01 121.88 26.65 121.88 27.04 122.11 27.24 122.56 27.24Z" fill="rgb(67,67,67)"/></svg>