<?xml version="1.0" encoding="utf-8"?>
<svg xmlns="http://www.w3.org/2000/svg"
	xmlns:xlink="http://www.w3.org/1999/xlink"
	width="36px" height="35px" viewBox="0 0 36 35">
<path fillRule="evenodd" d="M 32.4 35C 32.4 35 3.6 35 3.6 35 1.61 35-0 33.38-0 31.38-0 31.38-0 14.89-0 14.89-0 12.9 2.01 11 4 11 4 11 6 11 6 11 6 11 16.19 2.99 16.19 2.99 16.15 2.8 16.11 2.61 16.11 2.41 16.11 1.08 17.19-0 18.51-0 19.84-0 20.91 1.08 20.91 2.41 20.91 2.84 20.79 3.24 20.59 3.59 20.59 3.59 30 11 30 11 30 11 32 11 32 11 33.99 11 36 12.48 36 14.48 36 14.48 36 31.38 36 31.38 36 33.38 34.39 35 32.4 35ZM 19.29 27.26C 19.29 27.26 24.12 27.26 24.12 27.26 24.12 27.26 24.12 26.34 24.12 26.34 24.12 26.34 20.31 26.34 20.31 26.34 20.31 26.34 20.31 19.48 20.31 19.48 20.31 19.48 19.29 19.48 19.29 19.48 19.29 19.48 19.29 27.26 19.29 27.26ZM 12.36 27.26C 12.36 27.26 13.21 24.9 13.21 24.9 13.21 24.9 16.46 24.9 16.46 24.9 16.46 24.9 17.35 27.26 17.35 27.26 17.35 27.26 18.52 27.26 18.52 27.26 18.52 27.26 15.36 19.48 15.36 19.48 15.36 19.48 14.25 19.48 14.25 19.48 14.25 19.48 11.28 27.26 11.28 27.26 11.28 27.26 12.36 27.26 12.36 27.26ZM 5.21 20.39C 4.99 20.73 4.88 21.1 4.88 21.49 4.88 21.85 4.97 22.17 5.15 22.46 5.33 22.75 5.6 22.99 5.97 23.19 6.26 23.34 6.75 23.5 7.46 23.67 8.17 23.85 8.63 23.97 8.83 24.05 9.15 24.18 9.39 24.33 9.53 24.51 9.67 24.69 9.74 24.91 9.74 25.15 9.74 25.39 9.67 25.61 9.53 25.81 9.38 26.02 9.16 26.18 8.86 26.3 8.56 26.41 8.22 26.47 7.83 26.47 7.39 26.47 7 26.4 6.65 26.24 6.3 26.09 6.04 25.88 5.87 25.63 5.71 25.38 5.6 25.06 5.55 24.67 5.55 24.67 4.59 24.76 4.59 24.76 4.6 25.28 4.74 25.74 5.01 26.15 5.28 26.57 5.65 26.87 6.12 27.08 6.59 27.28 7.18 27.39 7.88 27.39 8.43 27.39 8.92 27.29 9.36 27.08 9.8 26.88 10.14 26.6 10.38 26.23 10.61 25.86 10.73 25.48 10.73 25.06 10.73 24.65 10.62 24.28 10.41 23.96 10.19 23.64 9.86 23.37 9.41 23.17 9.1 23.03 8.53 22.86 7.7 22.67 6.87 22.48 6.36 22.3 6.16 22.12 5.96 21.94 5.86 21.71 5.86 21.43 5.86 21.1 6 20.83 6.29 20.6 6.57 20.37 7.02 20.26 7.63 20.26 8.23 20.26 8.67 20.38 8.98 20.63 9.28 20.88 9.46 21.25 9.51 21.74 9.51 21.74 10.49 21.66 10.49 21.66 10.48 21.21 10.35 20.8 10.12 20.44 9.88 20.08 9.54 19.81 9.11 19.62 8.67 19.44 8.17 19.34 7.59 19.34 7.07 19.34 6.6 19.43 6.18 19.61 5.75 19.79 5.43 20.05 5.21 20.39ZM 20 4C 19.59 4.33 19.08 4.81 18.51 4.81 17.72 4.81 17.02 4.42 16.58 3.82 16.58 3.82 7 11 7 11 7 11 29 11 29 11 29 11 20 4 20 4ZM 31.12 26.34C 31.12 26.34 26.38 26.34 26.38 26.34 26.38 26.34 26.38 23.69 26.38 23.69 26.38 23.69 30.65 23.69 30.65 23.69 30.65 23.69 30.65 22.78 30.65 22.78 30.65 22.78 26.38 22.78 26.38 22.78 26.38 22.78 26.38 20.39 26.38 20.39 26.38 20.39 30.94 20.39 30.94 20.39 30.94 20.39 30.94 19.48 30.94 19.48 30.94 19.48 25.36 19.48 25.36 19.48 25.36 19.48 25.36 27.26 25.36 27.26 25.36 27.26 31.12 27.26 31.12 27.26 31.12 27.26 31.12 26.34 31.12 26.34ZM 14.78 20.29C 14.9 20.71 15.08 21.25 15.33 21.91 15.33 21.91 16.14 24.06 16.14 24.06 16.14 24.06 13.5 24.06 13.5 24.06 13.5 24.06 14.36 21.78 14.36 21.78 14.54 21.29 14.68 20.79 14.78 20.29Z" fill="rgb(255,255,255)"/></svg>