<?xml version="1.0" encoding="utf-8"?>
<svg xmlns="http://www.w3.org/2000/svg"
	xmlns:xlink="http://www.w3.org/1999/xlink"
	width="33px" height="23px" viewBox="0 0 33 23">
<path fillRule="evenodd" d="M 30.8 23C 30.8 23 2.2 23 2.2 23 0.98 23-0 22.02-0 20.8-0 20.8-0 2.2-0 2.2-0 0.98 0.98-0 2.2-0 2.2-0 30.8-0 30.8-0 32.01-0 33 0.98 33 2.2 33 2.2 33 20.8 33 20.8 33 22.02 32.01 23 30.8 23ZM 5.5 3.3C 5.5 3.3 3.3 3.3 3.3 3.3 3.3 3.3 3.3 19.7 3.3 19.7 3.3 19.7 5.5 19.7 5.5 19.7 5.5 19.7 5.5 3.3 5.5 3.3ZM 7.7 3.3C 7.7 3.3 6.6 3.3 6.6 3.3 6.6 3.3 6.6 17.58 6.6 17.58 6.6 17.58 7.7 17.58 7.7 17.58 7.7 17.58 7.7 3.3 7.7 3.3ZM 11 3.3C 11 3.3 9.9 3.3 9.9 3.3 9.9 3.3 9.9 17.58 9.9 17.58 9.9 17.58 11 17.58 11 17.58 11 17.58 11 3.3 11 3.3ZM 14.3 3.3C 14.3 3.3 12.1 3.3 12.1 3.3 12.1 3.3 12.1 17.58 12.1 17.58 12.1 17.58 14.3 17.58 14.3 17.58 14.3 17.58 14.3 3.3 14.3 3.3ZM 16.5 3.3C 16.5 3.3 15.4 3.3 15.4 3.3 15.4 3.3 15.4 17.58 15.4 17.58 15.4 17.58 16.5 17.58 16.5 17.58 16.5 17.58 16.5 3.3 16.5 3.3ZM 20.9 3.3C 20.9 3.3 18.7 3.3 18.7 3.3 18.7 3.3 18.7 17.58 18.7 17.58 18.7 17.58 20.9 17.58 20.9 17.58 20.9 17.58 20.9 3.3 20.9 3.3ZM 23.1 3.3C 23.1 3.3 22 3.3 22 3.3 22 3.3 22 17.58 22 17.58 22 17.58 23.1 17.58 23.1 17.58 23.1 17.58 23.1 3.3 23.1 3.3ZM 26.4 3.3C 26.4 3.3 25.3 3.3 25.3 3.3 25.3 3.3 25.3 17.58 25.3 17.58 25.3 17.58 26.4 17.58 26.4 17.58 26.4 17.58 26.4 3.3 26.4 3.3ZM 29.7 3.3C 29.7 3.3 27.5 3.3 27.5 3.3 27.5 3.3 27.5 19.7 27.5 19.7 27.5 19.7 29.7 19.7 29.7 19.7 29.7 19.7 29.7 3.3 29.7 3.3Z" fill="rgb(255,255,255)"/></svg>