<?xml version="1.0" encoding="utf-8"?>
<svg xmlns="http://www.w3.org/2000/svg"
	xmlns:xlink="http://www.w3.org/1999/xlink"
	width="12px" height="10px" viewBox="0 0 12 10">
<path fillRule="evenodd" d="M 12 1.18C 11.56 1.38 11.08 1.52 10.59 1.58 11.09 1.27 11.49 0.77 11.67 0.18 11.19 0.47 10.67 0.68 10.11 0.8 9.66 0.31 9.02 0 8.31 0 6.95 0 5.85 1.13 5.85 2.52 5.85 2.72 5.87 2.92 5.91 3.1 3.86 2.99 2.05 1.99 0.83 0.46 0.62 0.84 0.5 1.27 0.5 1.73 0.5 2.61 0.94 3.38 1.6 3.83 1.19 3.82 0.81 3.71 0.48 3.52 0.48 3.53 0.48 3.54 0.48 3.55 0.48 4.77 1.33 5.79 2.46 6.02 2.25 6.08 2.03 6.11 1.81 6.11 1.65 6.11 1.49 6.1 1.34 6.07 1.66 7.07 2.57 7.8 3.64 7.82 2.8 8.5 1.74 8.9 0.59 8.9 0.39 8.9 0.19 8.89-0 8.87 1.09 9.58 2.38 10 3.77 10 8.3 10 10.78 6.15 10.78 2.82 10.78 2.71 10.78 2.6 10.77 2.49 11.25 2.13 11.67 1.69 12 1.18Z" fill="rgb(255,255,255)"/></svg>